<svg xmlns="http://www.w3.org/2000/svg" width="24" height="24" viewBox="0 0 24 24">
  <path d="M0,0H24V24H0Z" style="fill: none"/>
  <g>
    <path d="M23.6,13.2h0a1.336,1.336,0,0,0-2,0l-6.7,6.7-2.5-2.5a1.336,1.336,0,0,0-2,0h0a1.336,1.336,0,0,0,0,2l3.5,3.5h0a1.336,1.336,0,0,0,2,0l7.7-7.7A1.519,1.519,0,0,0,23.6,13.2Z" style="fill: #004494"/>
    <path d="M9.2.7a9.25,9.25,0,0,0-5,17,3.116,3.116,0,0,1,3.1-3.1h3.9a3.116,3.116,0,0,1,3.1,3.1A9.213,9.213,0,0,0,18.5,10,9.347,9.347,0,0,0,9.2.7Zm0,12.8a3.5,3.5,0,1,1,0-7A3.478,3.478,0,0,1,12.7,10,3.418,3.418,0,0,1,9.2,13.5Z" style="fill: #004494"/>
  </g>
</svg>
