<?xml version="1.0" encoding="utf-8"?>
<!-- Generator: Adobe Illustrator 26.0.2, SVG Export Plug-In . SVG Version: 6.00 Build 0)  -->
<svg version="1.1" id="Calque_1" xmlns="http://www.w3.org/2000/svg" xmlns:xlink="http://www.w3.org/1999/xlink" x="0px" y="0px"
	 width="24px" height="24px" viewBox="0 0 24 24" style="enable-background:new 0 0 24 24;" xml:space="preserve">
<path style="fill:none;" d="M0,0h24v24H0V0z"/>
<path style="fill:#004494;" d="M18,13h-5v5c0,0.5-0.4,1-1,1s-1-0.5-1-1v-5H6c-0.6,0-1-0.4-1-1s0.4-1,1-1h5V6c0-0.6,0.4-1,1-1
	s1,0.4,1,1v5h5c0.5,0,1,0.4,1,1S18.5,13,18,13z"/>
</svg>
