<?xml version="1.0" encoding="utf-8"?>
<!-- Generator: Adobe Illustrator 26.0.0, SVG Export Plug-In . SVG Version: 6.00 Build 0)  -->
<svg version="1.1" id="Calque_1" xmlns="http://www.w3.org/2000/svg" xmlns:xlink="http://www.w3.org/1999/xlink" x="0px" y="0px"
	 width="24px" height="24px" viewBox="0 0 24 24" style="enable-background:new 0 0 24 24;" xml:space="preserve">
<style type="text/css">
	.st0{fill:#004494;}
</style>
<path class="st0" d="M11.2,1.4l-7,3.1C3.5,4.8,3,5.5,3,6.3V11c0,5.5,3.8,10.7,9,12c5.2-1.3,9-6.5,9-12V6.3c0-0.8-0.5-1.5-1.2-1.8
	l-7-3.1C12.3,1.1,11.7,1.1,11.2,1.4z M12,12h7c-0.5,4.1-3.3,7.8-7,8.9V12l-7,0V6.3l7-3.1C12,3.2,12,12,12,12z"/>
</svg>
