<?xml version="1.0" encoding="utf-8"?>
<!-- Generator: Adobe Illustrator 25.4.1, SVG Export Plug-In . SVG Version: 6.00 Build 0)  -->
<svg version="1.1" id="Calque_1" xmlns="http://www.w3.org/2000/svg" xmlns:xlink="http://www.w3.org/1999/xlink" x="0px" y="0px"
	 width="24px" height="24px" viewBox="0 0 24 24" style="enable-background:new 0 0 24 24;" xml:space="preserve">
<style type="text/css">
	.st0{fill:none;}
	.st1{fill:#004494;}
</style>
<path class="st0" d="M0,0h24v24H0V0z"/>
<path class="st1" d="M4,21h16c0.5,0,1-0.5,1-1s-0.5-1-1-1H4c-0.5,0-1,0.5-1,1S3.5,21,4,21z M4,17h16c0.5,0,1-0.5,1-1s-0.5-1-1-1H4
	c-0.5,0-1,0.4-1,1C3,16.5,3.5,17,4,17z M4,13h16c0.5,0,1-0.4,1-1s-0.5-1-1-1H4c-0.5,0-1,0.4-1,1S3.5,13,4,13z M4,9h16
	c0.5,0,1-0.4,1-1s-0.5-1-1-1H4C3.5,7,3,7.4,3,8S3.5,9,4,9z M3,4c0,0.6,0.5,1,1,1h16c0.5,0,1-0.4,1-1s-0.5-1-1-1H4C3.5,3,3,3.5,3,4z"
	/>
</svg>
