<?xml version="1.0" encoding="utf-8"?>
<!-- Generator: Adobe Illustrator 27.0.1, SVG Export Plug-In . SVG Version: 6.00 Build 0)  -->
<svg version="1.1" id="Calque_1" xmlns="http://www.w3.org/2000/svg" xmlns:xlink="http://www.w3.org/1999/xlink" x="0px" y="0px"
	 width="24px" height="24px" viewBox="0 0 24 24" style="enable-background:new 0 0 24 24;" xml:space="preserve">
<style type="text/css">
	.st0{fill:none;}
	.st1{fill:#DA2131;}
</style>
<g>
	<rect class="st0" width="24" height="24"/>
	<rect class="st0" width="24" height="24"/>
</g>
<g>
	<g>
		<path class="st1" d="M16,9c-0.7,0-1.4,0.1-2,0.3V7c0-1.1-0.9-2-2-2H4C2.9,5,2,5.9,2,7v10c0,1.1,0.9,2,2,2h5.7c1.1,2.4,3.5,4,6.3,4
			c3.9,0,7-3.1,7-7S19.9,9,16,9z M16,21c-2.8,0-5-2.2-5-5s2.2-5,5-5s5,2.2,5,5S18.8,21,16,21z"/>
		<path class="st1" d="M14,4c0.6,0,1-0.5,1-1s-0.4-1-1-1h-2.5l-0.7-0.7C10.6,1.1,10.4,1,10.1,1H5.9C5.7,1,5.4,1.1,5.2,1.3L4.5,2H2
			C1.5,2,1,2.5,1,3s0.5,1,1,1H14z"/>
		<path class="st1" d="M15.8,12L15.8,12c-0.4,0-0.8,0.3-0.8,0.8v3.7c0,0.4,0.2,0.7,0.5,0.9l2.5,1.5c0.3,0.2,0.8,0.1,1-0.2l0,0
			c0.2-0.3,0.1-0.8-0.2-1l-2.2-1.3v-3.4C16.5,12.3,16.2,12,15.8,12z"/>
	</g>
</g>
</svg>
