<?xml version="1.0" encoding="utf-8"?>
<!-- Generator: Adobe Illustrator 27.0.1, SVG Export Plug-In . SVG Version: 6.00 Build 0)  -->
<svg version="1.1" id="Calque_1" xmlns="http://www.w3.org/2000/svg" xmlns:xlink="http://www.w3.org/1999/xlink" x="0px" y="0px"
	 width="24px" height="24px" viewBox="0 0 24 24" style="enable-background:new 0 0 24 24;" xml:space="preserve">
<style type="text/css">
	.st0{fill:none;}
	.st1{fill:#004494;}
</style>
<g>
	<rect class="st0" width="24" height="24"/>
</g>
<g>
	<path class="st1" d="M21,7c0-0.6-0.5-1-1-1H8.8l2,2H20C20.5,8,21,7.6,21,7z M18,12c0-0.6-0.5-1-1-1h-3.2l2,2H17
		C17.5,13,18,12.6,18,12z M14,16.8c0,0.1,0,0.1,0,0.2c0,0.5-0.4,1-1,1h-2c-0.6,0-1-0.5-1-1s0.4-1,1-1h2c0.1,0,0.1,0,0.2,0l-3-3H7
		c-0.6,0-1-0.4-1-1s0.4-1,1-1h1.2l-3-3H4C3.5,8,3,7.6,3,7c0-0.3,0.2-0.6,0.4-0.8L2.1,4.9c-0.4-0.4-0.4-1,0-1.4s1-0.4,1.4,0l17,17
		c0.4,0.4,0.4,1,0,1.4s-1,0.4-1.4,0L14,16.8z"/>
</g>
</svg>
