<?xml version="1.0" encoding="utf-8"?>
<!-- Generator: Adobe Illustrator 27.0.1, SVG Export Plug-In . SVG Version: 6.00 Build 0)  -->
<svg version="1.1" id="Calque_1" xmlns="http://www.w3.org/2000/svg" xmlns:xlink="http://www.w3.org/1999/xlink" x="0px" y="0px"
	 width="24px" height="24px" viewBox="0 0 24 24" style="enable-background:new 0 0 24 24;" xml:space="preserve">
<style type="text/css">
	.st0{fill:none;}
	.st1{fill:#004494;}
</style>
<path class="st0" d="M0,0h24v24H0V0z"/>
<path class="st1" d="M11,18h2c0.6,0,1-0.5,1-1s-0.4-1-1-1h-2c-0.6,0-1,0.5-1,1S10.4,18,11,18z M3,7c0,0.6,0.5,1,1,1h16
	c0.5,0,1-0.4,1-1s-0.5-1-1-1H4C3.5,6,3,6.4,3,7z M7,13h10c0.5,0,1-0.4,1-1s-0.5-1-1-1H7c-0.6,0-1,0.4-1,1S6.4,13,7,13z"/>
</svg>
