<?xml version="1.0" encoding="utf-8"?>
<!-- Generator: Adobe Illustrator 26.0.2, SVG Export Plug-In . SVG Version: 6.00 Build 0)  -->
<svg version="1.1" id="Calque_1" xmlns="http://www.w3.org/2000/svg" xmlns:xlink="http://www.w3.org/1999/xlink" x="0px" y="0px"
	 width="24px" height="24px" viewBox="0 0 24 24" style="enable-background:new 0 0 24 24;" xml:space="preserve">
<rect style="fill:none;" width="24" height="24"/>
<path style="fill:#004494;" d="M17,11h3c1.1,0,2-0.9,2-2V5c0-1.1-0.9-2-2-2h-3c-1.1,0-2,0.9-2,2v1H9V5c0-1.1-0.9-2-2-2H4
	C2.9,3,2,3.9,2,5v4c0,1.1,0.9,2,2,2h3c1.1,0,2-0.9,2-2V8h2v7c0,1.6,1.3,3,3,3h1v1c0,1.1,0.9,2,2,2h3c1.1,0,2-0.9,2-2v-4
	c0-1.1-0.9-2-2-2h-3c-1.1,0-2,0.9-2,2v1h-1c-0.5,0-1-0.4-1-1V8h2v1C15,10.1,15.9,11,17,11z"/>
</svg>
