<?xml version="1.0" encoding="utf-8"?>
<!-- Generator: Adobe Illustrator 25.4.1, SVG Export Plug-In . SVG Version: 6.00 Build 0)  -->
<svg version="1.1" id="Calque_1" xmlns="http://www.w3.org/2000/svg" xmlns:xlink="http://www.w3.org/1999/xlink" x="0px" y="0px"
	 width="24px" height="24px" viewBox="0 0 24 24" style="enable-background:new 0 0 24 24;" xml:space="preserve">
<style type="text/css">
	.st0{fill:none;}
	.st1{fill:#004494;}
</style>
<path class="st0" d="M0,0h24v24H0V0z"/>
<path class="st1" d="M12,2C6.5,2,2,6.5,2,12s4.5,10,10,10s10-4.5,10-10S17.5,2,12,2z M13,19h-2v-2h2V19z M15.1,11.2l-0.9,0.9
	c-0.5,0.5-0.9,1-1,1.7C13.1,14.2,13,14.5,13,15h-2v-0.5c0-0.5,0.1-0.9,0.2-1.3c0.2-0.6,0.5-1.1,0.9-1.5l1.2-1.3
	c0.5-0.4,0.7-1.1,0.6-1.8c-0.1-0.7-0.7-1.3-1.4-1.5c-1.1-0.3-2.1,0.3-2.5,1.3C10,8.7,9.7,9,9.3,9H9C8.4,9,8,8.4,8.2,7.9
	c0.4-1.5,1.7-2.6,3.2-2.8c1.5-0.2,3,0.6,3.9,1.8C16.4,8.5,16.1,10.2,15.1,11.2z"/>
</svg>
