<?xml version="1.0" encoding="utf-8"?>
<!-- Generator: Adobe Illustrator 25.2.1, SVG Export Plug-In . SVG Version: 6.00 Build 0)  -->
<svg version="1.1" id="Calque_1" xmlns="http://www.w3.org/2000/svg" x="0px" y="0px"
     viewBox="0 0 24 24" style="enable-background:new 0 0 24 24;" xml:space="preserve">
<style type="text/css">
	.st0{fill:#F8AE21;}
</style>
<rect x="9.1" y="7.5" width="5.8" height="13.5"/>
<path class="st0" d="M4.5,21h15.1c1.5,0,2.5-1.7,1.7-3L13.7,5C13,3.7,11,3.7,10.3,5L2.7,18C2,19.3,2.9,21,4.5,21z M12,14
	c-0.6,0-1-0.4-1-1v-2c0-0.6,0.4-1,1-1s1,0.4,1,1v2C13,13.6,12.6,14,12,14z M13,18h-2v-2h2V18z"/>
</svg>
