<?xml version="1.0" encoding="utf-8"?>
<!-- Generator: Adobe Illustrator 26.0.2, SVG Export Plug-In . SVG Version: 6.00 Build 0)  -->
<svg version="1.1" id="Calque_1" xmlns="http://www.w3.org/2000/svg" xmlns:xlink="http://www.w3.org/1999/xlink" x="0px" y="0px"
	 width="24px" height="24px" viewBox="0 0 24 24" style="enable-background:new 0 0 24 24;" xml:space="preserve">
<path style="fill:none;" d="M0,0h24v24H0V0z"/>
<path style="fill:#004494;" d="M8,7h12c0.5,0,1-0.4,1-1s-0.5-1-1-1H8C7.4,5,7,5.4,7,6S7.4,7,8,7z M20,17H8c-0.6,0-1,0.5-1,1
	s0.4,1,1,1h12c0.5,0,1-0.5,1-1S20.5,17,20,17z M20,11H8c-0.6,0-1,0.4-1,1s0.4,1,1,1h12c0.5,0,1-0.4,1-1S20.5,11,20,11z M4.5,16h-2
	C2.2,16,2,16.2,2,16.5S2.2,17,2.5,17H4v0.5H3.5C3.2,17.5,3,17.7,3,18s0.2,0.5,0.5,0.5H4V19H2.5C2.2,19,2,19.2,2,19.5S2.2,20,2.5,20
	h2C4.8,20,5,19.8,5,19.5v-3C5,16.2,4.8,16,4.5,16z M2.5,5H3v2.5C3,7.8,3.2,8,3.5,8S4,7.8,4,7.5v-3C4,4.2,3.8,4,3.5,4h-1
	C2.2,4,2,4.2,2,4.5S2.2,5,2.5,5z M4.5,10h-2C2.2,10,2,10.2,2,10.5S2.2,11,2.5,11h1.3l-1.7,2C2,13.1,2,13.2,2,13.3v0.2
	C2,13.8,2.2,14,2.5,14h2C4.8,14,5,13.8,5,13.5S4.8,13,4.5,13H3.2l1.7-2C5,10.9,5,10.8,5,10.7v-0.2C5,10.2,4.8,10,4.5,10z"/>
</svg>
