<?xml version="1.0" encoding="utf-8"?>
<!-- Generator: Adobe Illustrator 26.0.1, SVG Export Plug-In . SVG Version: 6.00 Build 0)  -->
<svg version="1.1" id="Calque_1" xmlns="http://www.w3.org/2000/svg" xmlns:xlink="http://www.w3.org/1999/xlink" x="0px" y="0px"
	 width="24px" height="24px" viewBox="0 0 24 24" style="enable-background:new 0 0 24 24;" xml:space="preserve">
<style type="text/css">
	.st0{fill:none;}
	.st1{fill:#404040;}
</style>
<path class="st0" d="M0,0h24v24H0V0z"/>
<path class="st1" d="M20,2H8C6.9,2,6,2.9,6,4v12c0,1.1,0.9,2,2,2h12c1.1,0,2-0.9,2-2V4C22,2.9,21.1,2,20,2z M11.5,9.5
	c0,0.8-0.7,1.5-1.5,1.5H9v1.2C9,12.7,8.7,13,8.2,13s-0.8-0.3-0.8-0.8V8c0-0.6,0.4-1,1-1H10c0.8,0,1.5,0.7,1.5,1.5V9.5z M16.5,11.5
	c0,0.8-0.7,1.5-1.5,1.5h-2c-0.3,0-0.5-0.2-0.5-0.5v-5C12.5,7.2,12.7,7,13,7h2c0.8,0,1.5,0.7,1.5,1.5V11.5z M20.5,7.8
	c0,0.4-0.3,0.8-0.8,0.8H19v1h0.8c0.4,0,0.8,0.3,0.8,0.8S20.2,11,19.8,11H19v1.2c0,0.4-0.3,0.8-0.8,0.8s-0.8-0.3-0.8-0.8V8
	c0-0.6,0.5-1,1-1h1.2C20.2,7,20.5,7.3,20.5,7.8z M9,9.5h1v-1H9V9.5z M3,6C2.5,6,2,6.4,2,7v13c0,1.1,0.9,2,2,2h13c0.5,0,1-0.5,1-1
	s-0.5-1-1-1H5c-0.6,0-1-0.5-1-1V7C4,6.4,3.5,6,3,6z M14,11.5h1v-3h-1V11.5z"/>
</svg>
