<?xml version="1.0" encoding="utf-8"?>
<!-- Generator: Adobe Illustrator 25.4.1, SVG Export Plug-In . SVG Version: 6.00 Build 0)  -->
<svg version="1.1" id="Calque_1" xmlns="http://www.w3.org/2000/svg" xmlns:xlink="http://www.w3.org/1999/xlink" x="0px" y="0px"
	 width="24px" height="24px" viewBox="0 0 24 24" style="enable-background:new 0 0 24 24;" xml:space="preserve">
<style type="text/css">
	.st0{fill:none;}
	.st1{fill:#404040;}
</style>
<path class="st0" d="M0,0h24v24H0V0z"/>
<path class="st1" d="M22,4c0-1.1-0.9-2-2-2H4C2.9,2,2,2.9,2,4v12c0,1.1,0.9,2,2,2h14l4,4V4z M16,11h-3v3c0,0.6-0.4,1-1,1s-1-0.4-1-1
	v-3H8c-0.6,0-1-0.4-1-1s0.4-1,1-1h3V6c0-0.6,0.4-1,1-1s1,0.4,1,1v3h3c0.5,0,1,0.4,1,1S16.5,11,16,11z"/>
</svg>
