<?xml version="1.0" encoding="utf-8"?>
<!-- Generator: Adobe Illustrator 25.4.1, SVG Export Plug-In . SVG Version: 6.00 Build 0)  -->
<svg version="1.1" id="Calque_1" xmlns="http://www.w3.org/2000/svg" xmlns:xlink="http://www.w3.org/1999/xlink" x="0px" y="0px"
	 width="24px" height="24px" viewBox="0 0 24 24" style="enable-background:new 0 0 24 24;" xml:space="preserve">
<style type="text/css">
	.st0{fill:none;}
	.st1{fill:#004494;}
</style>
<path class="st0" d="M0,0h24v24H0V0z"/>
<path class="st1" d="M4,18h11c0.6,0,1-0.5,1-1l0,0c0-0.5-0.4-1-1-1H4c-0.5,0-1,0.5-1,1l0,0C3,17.5,3.5,18,4,18z M4,13h8
	c0.6,0,1-0.4,1-1l0,0c0-0.6-0.4-1-1-1H4c-0.5,0-1,0.4-1,1l0,0C3,12.6,3.5,13,4,13z M3,7L3,7c0,0.6,0.5,1,1,1h11c0.6,0,1-0.4,1-1l0,0
	c0-0.6-0.4-1-1-1H4C3.5,6,3,6.4,3,7z M20.3,14.9L17.4,12l2.9-2.9c0.4-0.4,0.4-1,0-1.4l0,0c-0.4-0.4-1-0.4-1.4,0l-3.6,3.6
	c-0.4,0.4-0.4,1,0,1.4l3.6,3.6c0.4,0.4,1,0.4,1.4,0l0,0C20.7,15.9,20.7,15.3,20.3,14.9z"/>
<path class="st0" d="M0,0h24v24H0V0z"/>
</svg>
