<?xml version="1.0" encoding="utf-8"?>
<!-- Generator: Adobe Illustrator 26.0.0, SVG Export Plug-In . SVG Version: 6.00 Build 0)  -->
<svg version="1.1" id="Calque_1" xmlns="http://www.w3.org/2000/svg" xmlns:xlink="http://www.w3.org/1999/xlink" x="0px" y="0px"
	 width="24px" height="24px" viewBox="0 0 24 24" style="enable-background:new 0 0 24 24;" xml:space="preserve">
<style type="text/css">
	.st0{fill:none;}
	.st1{fill:#004494;}
</style>
<g>
	<rect y="0" class="st0" width="24" height="24"/>
	<rect y="0" class="st0" width="24" height="24"/>
</g>
<g>
	<path class="st1" d="M20,11.1V6.4c0-0.8-0.5-1.6-1.3-1.9l-6-2.2c-0.4-0.2-0.9-0.2-1.4,0L6.8,4L18.9,16C19.6,14.5,20,12.8,20,11.1z
		 M20.5,20.5l-17-17c-0.4-0.4-1-0.4-1.4,0s-0.4,1,0,1.4L4,6.8v4.3c0,4.8,3.1,9.4,7.4,10.7c0.4,0.1,0.8,0.1,1.1,0
		c1.5-0.5,2.8-1.4,4-2.5l2.5,2.5c0.4,0.4,1,0.4,1.4,0C20.9,21.5,20.9,20.9,20.5,20.5z"/>
</g>
</svg>
