<?xml version="1.0" encoding="utf-8"?>
<!-- Generator: Adobe Illustrator 27.0.1, SVG Export Plug-In . SVG Version: 6.00 Build 0)  -->
<svg version="1.1" id="Calque_1" xmlns="http://www.w3.org/2000/svg" xmlns:xlink="http://www.w3.org/1999/xlink" x="0px" y="0px"
	 width="24px" height="24px" viewBox="0 0 24 24" style="enable-background:new 0 0 24 24;" xml:space="preserve">
<style type="text/css">
	.st0{fill:none;}
	.st1{fill:#004494;}
</style>
<g>
	<rect class="st0" width="24" height="24"/>
	<path class="st1" d="M19,10c1.1,0,2.2-0.4,3-1v9c0,1.1-0.9,2-2,2H4c-1.1,0-2-0.9-2-2V6c0-1.1,0.9-2,2-2h10.1C14,4.3,14,4.7,14,5
		c0,1.5,0.6,2.8,1.7,3.7L12,11L5.3,6.8C4.7,6.5,4,6.9,4,7.5c0,0.3,0.2,0.6,0.4,0.7l7.1,4.4c0.3,0.2,0.7,0.2,1.1,0l4.8-3
		C17.8,9.9,18.4,10,19,10z M16,5c0,1.7,1.3,3,3,3s3-1.3,3-3s-1.3-3-3-3S16,3.3,16,5z"/>
</g>
</svg>
