<?xml version="1.0" encoding="utf-8"?>
<!-- Generator: Adobe Illustrator 25.2.1, SVG Export Plug-In . SVG Version: 6.00 Build 0)  -->
<svg version="1.1" id="Calque_1" xmlns="http://www.w3.org/2000/svg" x="0px" y="0px"
     viewBox="0 0 24 24" style="enable-background:new 0 0 24 24;" xml:space="preserve">
<style type="text/css">
	.st0{fill:none;}
	.st1{fill:#467A39;}
</style>
<path class="st0" d="M0,0h24v24H0V0z"/>
<path class="st1" d="M12,2C6.5,2,2,6.5,2,12s4.5,10,10,10s10-4.5,10-10S17.5,2,12,2z M9.3,16.3l-3.6-3.6c-0.4-0.4-0.4-1,0-1.4
	s1-0.4,1.4,0l2.9,2.9l6.9-6.9c0.4-0.4,1-0.4,1.4,0s0.4,1,0,1.4l-7.6,7.6C10.3,16.7,9.7,16.7,9.3,16.3z"/>
</svg>
