<?xml version="1.0" encoding="utf-8"?>
<!-- Generator: Adobe Illustrator 27.2.0, SVG Export Plug-In . SVG Version: 6.00 Build 0)  -->
<svg version="1.1" id="Calque_1" xmlns="http://www.w3.org/2000/svg" xmlns:xlink="http://www.w3.org/1999/xlink" x="0px" y="0px"
	 width="12px" height="24px" viewBox="0 0 12 24" style="enable-background:new 0 0 12 24;" xml:space="preserve">
<style type="text/css">
	.st0{fill:#9F9F9F;}
	.st1{fill:#404040;}
</style>
<g>
	<path class="st0" d="M9.7,13.3c0.4,0,0.6,0.2,0.8,0.5c0.1,0.4,0.1,0.7-0.2,0.9l-3.7,3.7c-0.1,0.1-0.2,0.2-0.3,0.2s-0.2,0-0.3,0
		c-0.1,0-0.2,0-0.3,0c-0.1,0-0.2-0.1-0.3-0.2l-3.7-3.7c-0.3-0.3-0.3-0.6-0.2-0.9c0.1-0.4,0.4-0.5,0.8-0.5
		C2.3,13.4,9.7,13.4,9.7,13.3z"/>
	<path class="st1" d="M2.3,10.7c-0.4,0-0.6-0.2-0.8-0.5C1.4,9.8,1.4,9.5,1.7,9.3l3.7-3.7c0.1-0.1,0.2-0.2,0.3-0.2s0.2,0,0.3,0
		c0.1,0,0.2,0,0.3,0c0.1,0,0.2,0.1,0.3,0.2l3.7,3.7c0.3,0.3,0.3,0.6,0.2,0.9c-0.1,0.4-0.4,0.5-0.8,0.5C9.7,10.6,2.3,10.6,2.3,10.7z"
		/>
</g>
</svg>
