<?xml version="1.0" encoding="utf-8"?>
<!-- Generator: Adobe Illustrator 26.0.2, SVG Export Plug-In . SVG Version: 6.00 Build 0)  -->
<svg version="1.1" id="Calque_1" xmlns="http://www.w3.org/2000/svg" xmlns:xlink="http://www.w3.org/1999/xlink" x="0px" y="0px"
	 width="24px" height="24px" viewBox="0 0 24 24" style="enable-background:new 0 0 24 24;" xml:space="preserve">
<style type="text/css">
	.st0{fill:none;}
	.st1{fill:#004494;}
</style>
<g>
	<rect class="st0" width="24" height="24"/>
</g>
<g>
	<path class="st1" d="M16.6,9H15V4c0-0.5-0.4-1-1-1h-4C9.4,3,9,3.5,9,4v5H7.4c-0.9,0-1.3,1.1-0.7,1.7l4.6,4.6c0.4,0.4,1,0.4,1.4,0
		l4.6-4.6C17.9,10.1,17.5,9,16.6,9z M5,19c0,0.5,0.4,1,1,1h12c0.5,0,1-0.5,1-1s-0.5-1-1-1H6C5.4,18,5,18.5,5,19z"/>
</g>
</svg>
