<?xml version="1.0" encoding="utf-8"?>
<!-- Generator: Adobe Illustrator 26.0.2, SVG Export Plug-In . SVG Version: 6.00 Build 0)  -->
<svg version="1.1" id="Calque_1" xmlns="http://www.w3.org/2000/svg" xmlns:xlink="http://www.w3.org/1999/xlink" x="0px" y="0px"
	 width="24px" height="24px" viewBox="0 0 24 24" style="enable-background:new 0 0 24 24;" xml:space="preserve">
<g>
	<rect style="fill:none;" width="24" height="24"/>
</g>
<g>
	<path style="fill:#004494;" d="M7.4,10H9v5c0,0.6,0.4,1,1,1h4c0.6,0,1-0.4,1-1v-5h1.6c0.9,0,1.3-1.1,0.7-1.7l-4.6-4.6
		c-0.4-0.4-1-0.4-1.4,0L6.7,8.3C6.1,8.9,6.5,10,7.4,10z M5,19c0,0.5,0.4,1,1,1h12c0.5,0,1-0.5,1-1s-0.5-1-1-1H6C5.4,18,5,18.5,5,19z
		"/>
</g>
</svg>
