<?xml version="1.0" encoding="utf-8"?>
<!-- Generator: Adobe Illustrator 25.4.1, SVG Export Plug-In . SVG Version: 6.00 Build 0)  -->
<svg version="1.1" id="Calque_1" xmlns="http://www.w3.org/2000/svg" xmlns:xlink="http://www.w3.org/1999/xlink" x="0px" y="0px"
	 width="24px" height="24px" viewBox="0 0 24 24" style="enable-background:new 0 0 24 24;" xml:space="preserve">
<style type="text/css">
	.st0{fill:none;}
	.st1{fill:#004494;}
</style>
<g>
	<rect class="st0" width="24" height="24"/>
	<rect class="st0" width="24" height="24"/>
</g>
<g>
	<g>
		<path class="st1" d="M15.5,14h-0.8l-0.3-0.3c1.2-1.4,1.8-3.3,1.5-5.3c-0.5-2.8-2.8-5-5.6-5.3C6.5,2.6,3.3,5.4,3,9h2
			C5.3,6.9,7,5.2,9.1,5C11.6,4.8,14,6.9,14,9.5C14,12,12,14,9.5,14c-0.2,0-0.3,0-0.5-0.1v2c0,0,0,0,0,0c1.8,0.1,3.5-0.5,4.7-1.6
			l0.3,0.3v0.8l4.2,4.2c0.4,0.4,1.1,0.4,1.5,0l0,0c0.4-0.4,0.4-1.1,0-1.5L15.5,14z"/>
		<path class="st1" d="M6.1,11.2L4,13.3l-2.1-2.1c-0.2-0.2-0.5-0.2-0.7,0l0,0c-0.2,0.2-0.2,0.5,0,0.7L3.3,14l-2.1,2.1
			c-0.2,0.2-0.2,0.5,0,0.7l0,0c0.2,0.2,0.5,0.2,0.7,0L4,14.7l2.1,2.1c0.2,0.2,0.5,0.2,0.7,0l0,0c0.2-0.2,0.2-0.5,0-0.7L4.7,14
			l2.1-2.1c0.2-0.2,0.2-0.5,0-0.7l0,0C6.6,11,6.3,11,6.1,11.2z"/>
	</g>
</g>
</svg>
