<?xml version="1.0" encoding="utf-8"?>
<!-- Generator: Adobe Illustrator 25.4.1, SVG Export Plug-In . SVG Version: 6.00 Build 0)  -->
<svg version="1.1" id="Calque_1" xmlns="http://www.w3.org/2000/svg" xmlns:xlink="http://www.w3.org/1999/xlink" x="0px" y="0px"
	 width="24px" height="24px" viewBox="0 0 24 24" style="enable-background:new 0 0 24 24;" xml:space="preserve">
<style type="text/css">
	.st0{fill:none;}
	.st1{fill:#404040;}
</style>
<path class="st0" d="M0,0h24v24H0V0z M0,0h24v24H0V0z M0,0h24v24H0V0z M0,0h24v24H0V0z"/>
<path class="st1" d="M8.9,6c0-1.7,1.4-3.1,3.1-3.1s3.1,1.4,3.1,3.1v2h-4.7l9.6,9.6V10c0-1.1-0.9-2-2-2h-1V6c0-2.8-2.2-5-5-5
	C9.7,1,7.7,2.6,7.2,4.7l1.7,1.7V6z M5.1,5.5c-0.4-0.4-1-0.4-1.4,0s-0.4,1,0,1.4L5,8.2c-0.6,0.4-1,1-1,1.8v10c0,1.1,0.9,2,2,2h12.8
	l0.3,0.3c0.4,0.4,1,0.4,1.4,0s0.4-1,0-1.4L5.1,5.5z"/>
</svg>
