<?xml version="1.0" encoding="utf-8"?>
<!-- Generator: Adobe Illustrator 25.4.1, SVG Export Plug-In . SVG Version: 6.00 Build 0)  -->
<svg version="1.1" id="Calque_1" xmlns="http://www.w3.org/2000/svg" xmlns:xlink="http://www.w3.org/1999/xlink" x="0px" y="0px"
	 width="24px" height="24px" viewBox="0 0 24 24" style="enable-background:new 0 0 24 24;" xml:space="preserve">
<style type="text/css">
	.st0{fill:none;}
	.st1{fill:#004494;}
</style>
<rect class="st0" width="24" height="24"/>
<path class="st1" d="M19,8H5C3.9,8,3,7.1,3,6l0,0c0-1.1,0.9-2,2-2h14c1.1,0,2,0.9,2,2l0,0C21,7.1,20.1,8,19,8z M19,10H5
	c-1.1,0-2,0.9-2,2l0,0c0,1.1,0.9,2,2,2h14c1.1,0,2-0.9,2-2l0,0C21,10.9,20.1,10,19,10z M19,16H5c-1.1,0-2,0.9-2,2l0,0
	c0,1.1,0.9,2,2,2h14c1.1,0,2-0.9,2-2l0,0C21,16.9,20.1,16,19,16z"/>
</svg>
