<?xml version="1.0" encoding="utf-8"?>
<!-- Generator: Adobe Illustrator 25.2.0, SVG Export Plug-In . SVG Version: 6.00 Build 0)  -->
<svg version="1.1" id="Calque_1" xmlns="http://www.w3.org/2000/svg" x="0px" y="0px"
     viewBox="0 0 26.1 24" style="enable-background:new 0 0 26.1 24;" xml:space="preserve">
<style type="text/css">
	.st0{fill:none;}
</style>
<g>
	<rect y="0" class="st0" width="24" height="24"/>
</g>
<g>
	<path d="M20.3,18.9l-5.6-5.6c1.1-1.6,1.6-3.6,1-5.7c-0.7-2.2-2.6-4-4.9-4.4c-4.7-0.9-8.7,3.1-7.7,7.7c0.5,2.3,2.2,4.2,4.4,4.8
		c2.2,0.6,4.2,0.1,5.7-1l5.6,5.6c0.4,0.4,1,0.4,1.4,0l0,0C20.7,19.9,20.7,19.3,20.3,18.9z M5,9.5C5,7,7,5,9.5,5S14,7,14,9.5
		S12,14,9.5,14S5,12,5,9.5z"/>
</g>
</svg>
