<?xml version="1.0" encoding="utf-8"?>
<!-- Generator: Adobe Illustrator 27.0.0, SVG Export Plug-In . SVG Version: 6.00 Build 0)  -->
<svg version="1.1" id="Layer_1" xmlns="http://www.w3.org/2000/svg" xmlns:xlink="http://www.w3.org/1999/xlink" x="0px" y="0px"
	 width="247px" height="67.8px" viewBox="0 0 247 67.8" style="enable-background:new 0 0 247 67.8;" xml:space="preserve">
<style type="text/css">
	.st0{fill:#BBBDBF;}
	.st1{fill:#034DA1;}
	.st2{fill:#FFF100;}
	.st3{enable-background:new    ;}
	.st4{fill:#626366;}
</style>
<g id="Page-1">
	<g id="Version-2-menu" transform="translate(-131 -108)">
		<g id="Site-header" transform="translate(131 108)">
			<g id="logo-copy">
				<g id="Group-20">
					<g id="Group-18-Copy">
						<path id="Fill-40" class="st0" d="M0,25.9c0,0,39.8-5.2,41-5.4c1.7-0.3,3.3-0.6,4.7-1c3.2-0.9,6.2-2.2,8.8-4
							c2.5-1.7,4.9-4.2,7.2-6.9c1.5-1.7,3-4,4.5-6.2v-1c-1.7,2.6-3.4,4.8-5.1,6.7c-2.3,2.6-4.7,4.7-7.2,6.3s-5.4,2.9-8.5,3.7
							c-1.4,0.4-2.9,0.6-4.6,0.9c-1.1,0.2-2.2,0.3-3.3,0.4C37,19.4,0,23.3,0,23.3V25.9z"/>
						<path id="Fill-41" class="st0" d="M53.4,19.2c-2.5,1.4-5.4,2.5-8.6,3.1c-1.4,0.3-2.8,0.5-4.5,0.7l-3,0.3
							c-0.5,0-1.1,0.1-1.6,0.1C23.5,24.6,11.4,25.7,0,26.8v2.6c11.4-1.4,23.7-2.9,35.9-4.3c0.5-0.1,1.1-0.1,1.6-0.2
							c1-0.1,2-0.2,3-0.4c1.7-0.2,3.3-0.5,4.6-0.8c3.3-0.7,6.3-1.9,8.9-3.5s4.8-3.7,7.3-6.4c1.5-1.7,3.2-4,4.8-6.2v-1
							c-1.9,2.5-3.6,4.7-5.4,6.5C58.3,15.8,55.9,17.8,53.4,19.2"/>
						<path id="Fill-42" class="st0" d="M60.4,18.6c-2.4,2.2-5,4-7.5,5.3c-2.5,1.2-5.3,2.1-8.6,2.6c-1.4,0.2-2.8,0.4-4.5,0.6L0,30.3
							v2.6l35.3-3.8l4.6-0.5c1.7-0.2,3.2-0.4,4.6-0.7c3.4-0.6,6.3-1.6,8.9-2.9c2.7-1.4,5.3-3.6,7.8-6c1.7-1.6,3.2-3.7,4.9-5.8v-0.9
							C64.1,14.8,62.3,16.8,60.4,18.6"/>
						<path id="Fill-43" class="st0" d="M50.8,32c-2.3,1.3-4,2.1-7.3,2.4c-2,0.2-4,0.3-6,0.4c-1,0-1.9,0.1-2.9,0.2
							c-6,0.3-11.9,0.7-17.9,1.1L0,37.3v2.6l16.8-1.6c5.4-0.5,11.7-1.1,17.9-1.6l4.5-0.3c1.7-0.1,3.2-0.3,4.5-0.5
							c3.4-0.4,6.3-1.1,8.9-2.1c2.8-1,5.4-2.7,8-4.6c2.4-1.7,5.6-5.1,5.6-5.2v-0.9c-2.1,2.1-3.4,3.3-5.7,4.8
							C57.6,29.9,52.9,30.9,50.8,32"/>
						<path id="Fill-44" class="st0" d="M51.6,37c-2.5,0.7-5.3,1.2-8.6,1.5c-1.3,0.1-2.8,0.2-4.4,0.3L34.2,39
							c-11,0.5-22,1.1-34.1,1.7v2.6c11.6-0.9,22.9-1.8,34.3-2.6l4.4-0.3c1.7-0.1,3.1-0.2,4.5-0.4c3.4-0.4,6.3-1,8.8-1.8
							c2.8-0.9,5.6-2.2,8.2-3.9c1.9-1.2,3.9-2.7,5.9-4.5c-2.2,1.9-4.3,2.3-6.4,3.6C57.1,35,54.4,36.2,51.6,37"/>
						<path id="Fill-45" class="st0" d="M51.2,41.3c-2.5,0.6-5.3,1-8.6,1.2c-1.3,0.1-2.7,0.2-4.4,0.2l-4.4,0.2
							C22.7,43.3,11.5,43.8,0,44.3v2.6c11.4-0.8,22.6-1.5,33.9-2.3l4.4-0.3c1.7-0.1,3.1-0.2,4.4-0.3c3.4-0.3,6.2-0.8,8.8-1.5
							c2.9-0.8,5.7-1.9,8.4-3.3c2.1-1.1,4.1-2.4,6.2-4v-1.1c-2.3,1.7-4.5,3-6.7,4.1C56.8,39.6,54,40.6,51.2,41.3"/>
						<path id="Fill-46" class="st0" d="M50.8,45.5c-2.5,0.5-5.3,0.8-8.6,0.9c-1.3,0.1-2.6,0.1-4.3,0.2L0,47.6v2.6l33.6-1.8l4.4-0.2
							c1.7-0.1,3.1-0.2,4.4-0.3c3.4-0.3,6.1-0.6,8.7-1.2c2.9-0.6,5.8-1.5,8.5-2.7c2.2-0.9,4.3-2,6.6-3.4v-1c-2.4,1.4-4.7,2.5-7,3.4
							C56.5,44.2,53.7,45,50.8,45.5"/>
						<path id="Fill-47" class="st0" d="M50.5,49.7c-4.7,0.6-9.4,0.7-14.1,0.8c-1.1,0-2.1,0-3.2,0.1L0,51.2v2.6l33.3-1.4
							c1.1,0,2.1-0.1,3.2-0.1c4.7-0.2,9.5-0.4,14.2-1.1c3-0.5,5.9-1.2,8.5-2.1c2.2-0.7,4.5-1.7,6.8-2.9v-1c-2.4,1.1-4.9,2.1-7.2,2.8
							C56.3,48.7,53.5,49.4,50.5,49.7"/>
						<path id="Fill-48" class="st0" d="M50.3,54c-4.4,0.4-8.8,0.4-13.2,0.4h-4c-11,0-22,0.1-33.1,0.2v2.6
							c10.6-0.4,21.9-0.7,33.2-1.1c1.3,0,2.7-0.1,4-0.1c4.3-0.1,8.8-0.2,13.2-0.7c3.1-0.3,5.9-0.8,8.6-1.5c2.3-0.6,4.7-1.4,7.2-2.3
							v-0.9c-2.5,0.9-5,1.6-7.4,2.2C56.1,53.4,53.3,53.8,50.3,54"/>
						<path id="Fill-49" class="st0" d="M50.1,58.2c-1.8,0.1-3.8,0.1-6,0.1h-2.5L33,58.2c-5.9,0-11.7-0.1-17.2-0.1L0,58.2v2.6
							l15.9-0.4c5.5-0.1,11.3-0.3,17.1-0.4l8.6-0.1c2.4,0,5.5-0.1,8.6-0.3s5.9-0.5,8.6-0.9c2.4-0.4,4.9-0.9,7.4-1.5v-0.9
							c-2.5,0.6-5.1,1.1-7.5,1.4C55.9,57.9,53.2,58.1,50.1,58.2"/>
						<path id="Fill-50" class="st0" d="M41.5,62.3l-8.6-0.1C22,62,11.1,61.8,0,61.6v2.6c10.6-0.1,21.8-0.2,32.9-0.3l8.6-0.1
							c2.9,0,5.7-0.1,8.6-0.2c5.9-0.2,11.1-0.6,16.1-1.3v-0.9c-4.9,0.5-10.2,0.8-16.1,0.9H41.5"/>
						<path id="Fill-51" class="st0" d="M66.1,66.9L0,65.2v2.6h66.1V66.9z"/>
						<path id="Fill-52" class="st0" d="M60.2,23.4c-2.5,2-4.5,3.5-7.5,4.7c-2.7,1.1-5.6,1.5-8.8,2c-2.1,0.3-4.3,0.7-6.4,0.9
							c-0.9,0.1-1.7,0.1-2.6,0.2L0,33.7v2.6l34.9-3.4l4.5-0.4c1.7-0.2,3.2-0.3,4.6-0.6c3.4-0.5,6.3-1.4,8.9-2.6
							c2.7-1.2,5.5-3.2,8-5.3c1.7-1.5,3.4-3.3,5.2-5.3v-0.9C63.9,20,62.1,21.9,60.2,23.4"/>
						<path id="Fill-53" class="st0" d="M94.2,1.4c0,0,11.9,18.9,14.1,22.4s4.7,6.2,13.5,8.1s12.6,2.7,12.6,2.7v0.7
							c0,0-5.6-1.2-12.8-2.8c-7.2-1.6-10.1-2.1-13.4-6.7c-2.7-3.8-14-19.9-14-19.9S94.2,1.4,94.2,1.4z"/>
						<path id="Fill-54" class="st0" d="M94.2,23c0,0,10.8,11.3,14,14.6c3.3,3.5,7.6,4.7,13.5,5.8c5.6,1,12.7,2.2,12.7,2.2v0.6
							c0,0-6.7-1.1-12.7-2.1c-5.9-1-10.1-1.6-13.5-4.7c-3-2.8-13.9-13-13.9-13L94.2,23z"/>
						<path id="Fill-55" class="st0" d="M94.2,28.2c0,0,10.3,9.6,14,12.8c3.4,3,6.1,3.9,13.5,5.3c7.4,1.3,12.7,2.1,12.7,2.1v0.7
							c0,0-6.7-1.1-12.7-2.1s-9.9-1.3-13.5-4.3c-4.2-3.4-14-11.4-14-11.4V28.2z"/>
						<path id="Fill-56" class="st0" d="M94.2,33.6c0,0,11.8,9.3,14,11c2.2,1.6,5.1,3.5,13.5,4.8c8.4,1.2,12.7,1.8,12.7,1.8v0.7
							c0,0-7.6-1.1-12.7-1.7c-5.1-0.6-9-0.9-13.5-3.9c-4.4-2.9-14-9.7-14-9.7S94.2,33.6,94.2,33.6z"/>
						<path id="Fill-57" class="st0" d="M94.2,38.8c0,0,11.8,7.9,14,9.1c2.2,1.2,4.9,3.3,13.5,4.4c8.6,1.1,12.7,1.6,12.7,1.6v0.7
							c0,0-7.1-0.8-12.7-1.4c-5.6-0.6-9.4-1.4-13.5-3.7s-14-8-14-8S94.2,38.8,94.2,38.8z"/>
						<path id="Fill-58" class="st0" d="M94.2,44.1c0,0,10.4,5.7,14,7.4c3.9,2,7.3,2.9,13.5,3.7c6.1,0.7,12.7,1.4,12.7,1.4v0.6
							c0,0-6.1-0.7-12.7-1.3c-6.5-0.6-8.8-0.9-13.5-3c-4.2-1.9-14-6.4-14-6.4V44.1z"/>
						<path id="Fill-59" class="st0" d="M94.2,49.4c0,0,8.2,3.5,14,5.8c5.7,2.3,10,2.5,13.5,2.8c1.5,0.2,12.6,1.3,12.6,1.3v0.6
							c0,0-6.6-0.5-12.7-1.1c-6-0.5-8.6-0.8-13.5-2.4c-4.9-1.6-14-4.8-14-4.8S94.2,49.4,94.2,49.4z"/>
						<path id="Fill-60" class="st0" d="M94.2,54.8c0,0,8.3,2.6,14,4.1s10.9,2.1,13.5,2.3s12.7,1,12.7,1v0.6c0,0-5.7-0.4-12.7-0.9
							c-5.7-0.4-10.2-0.8-13.5-1.6c-3.7-0.8-14-3.3-14-3.3S94.2,54.8,94.2,54.8z"/>
						<path id="Fill-61" class="st0" d="M94.2,60.1c0,0,6.8,1.2,14,2.4c5.4,0.9,12.7,1.5,13.5,1.5s12.7,0.9,12.7,0.9v0.6
							c0,0-7.6-0.4-12.7-0.7c-5.3-0.3-10.5-0.6-13.5-0.9c-6.7-0.7-14-1.6-14-1.6S94.2,60.1,94.2,60.1z"/>
						<path id="Fill-62" class="st0" d="M94.2,65.7c0,0,10.7,0.4,14,0.5s26.2,1,26.2,1v0.6H94.2V65.7z"/>
						<path id="Fill-63" class="st0" d="M121.7,34.8c-9.7-2.1-11.9-5.6-13.5-7.8S94.3,6.8,94.3,6.8v4.1c0.5,0.6,11,14.4,14,18.2
							c3.3,4.3,8.5,5.3,13.5,6.3c5,1.1,12.7,2.6,12.7,2.6v-0.6C134.4,37.4,124.2,35.4,121.7,34.8"/>
						<path id="Fill-64" class="st0" d="M121.7,37.7c-8-1.6-11.2-4.1-13.5-7.1c-2.3-3.1-13.9-18.3-13.9-18.3v3.8
							c0.5,0.6,11.1,13.1,13.9,16.4c3.3,3.8,7.9,4.8,13.5,5.8s12.7,2.4,12.7,2.4v-0.6C134.4,40.1,126.3,38.6,121.7,37.7"/>
						<path id="Fill-65" class="st0" d="M121.7,40.6c-8.3-1.6-10-2.9-13.5-6.8c-2.2-2.4-13.5-15.7-14-16.3V21
							c0,0,10.5,11.2,13.9,14.6c4.4,4.4,8.6,4.7,13.5,5.6c4.9,0.9,12.7,2.3,12.7,2.3v-0.6C134.4,42.9,125,41.3,121.7,40.6"/>
						<path id="Fill-66" class="st1" d="M85.4,29H27.5v38.7h57.9V29z"/>
						<path id="Fill-67" class="st2" d="M57.1,34.5h2l-1.6,1.3l0.6,2l-1.6-1.2l-1.6,1.2l0.6-2l-1.6-1.3h2l0.6-2L57.1,34.5z"/>
						<path id="Fill-68" class="st2" d="M57.1,60.3h2l-1.6,1.2l0.6,1.9l-1.6-1.2l-1.6,1.2l0.6-1.9l-1.6-1.2h2l0.6-1.9L57.1,60.3z"/>
						<path id="Fill-69" class="st2" d="M63.5,58.6h2l-1.6,1.2l0.6,1.9l-1.6-1.2l-1.6,1.2l0.6-1.9l-1.6-1.2h2l0.6-1.9L63.5,58.6z"/>
						<path id="Fill-70" class="st2" d="M63.5,36.2h2l-1.6,1.2l0.6,1.9l-1.6-1.2l-1.6,1.3l0.7-2l-1.6-1.2h2l0.6-1.9
							C63,34.3,63.5,36.2,63.5,36.2z"/>
						<path id="Fill-71" class="st2" d="M68.3,41h2l-1.6,1.2l0.6,1.9l-1.6-1.2l-1.6,1.2l0.6-1.9L65.1,41h2l0.6-1.9L68.3,41z"/>
						<path id="Fill-72" class="st2" d="M68.3,54h2l-1.6,1.2l0.6,1.9l-1.6-1.2l-1.6,1.2l0.6-1.9L65.1,54h2l0.6-1.9L68.3,54z"/>
						<path id="Fill-73" class="st2" d="M70.1,47.4h2l-1.6,1.2l0.6,1.9l-1.6-1.2l-1.6,1.2l0.6-1.9l-1.7-1.2h2l0.6-1.9L70.1,47.4z"/>
						<path id="Fill-74" class="st2" d="M50.5,36.2h2l-1.6,1.2l0.6,1.9L50,38.2l-1.7,1.2l0.6-1.9l-1.6-1.2h2l0.7-1.9L50.5,36.2z"/>
						<path id="Fill-75" class="st2" d="M45.9,41h2l-1.6,1.2l0.6,1.9l-1.6-1.2l-1.6,1.2l0.6-1.9L42.7,41h2l0.6-1.9L45.9,41z"/>
						<path id="Fill-76" class="st2" d="M44.2,47.4h2l-1.6,1.2l0.6,1.9l-1.6-1.2L42,50.5l0.6-1.9L41,47.4h2l0.6-1.9
							C43.6,45.5,44.2,47.4,44.2,47.4z"/>
						<path id="Fill-77" class="st2" d="M45.9,54h2l-1.6,1.2l0.6,1.9l-1.6-1.2l-1.6,1.2l0.6-1.9L42.7,54h2l0.6-1.9L45.9,54z"/>
						<path id="Fill-78" class="st2" d="M50.6,58.7h2L51,59.9l0.6,1.9L50,60.6l-1.6,1.2l0.6-1.9l-1.6-1.2h2l0.6-1.9L50.6,58.7z"/>
					</g>
				</g>
			</g>
		</g>
	</g>
</g>
<g>
	<g class="st3">
		<path class="st4" d="M143.4,34.3c0-0.3,0.1-0.4,0.4-0.4h7.4c0.3,0,0.4,0.1,0.4,0.4v1.2c0,0.2-0.1,0.4-0.4,0.4h-5.5v3.5h4.9
			c0.3,0,0.4,0.1,0.4,0.4V41c0,0.2-0.1,0.4-0.4,0.4h-4.9v4h5.6c0.2,0,0.4,0.1,0.4,0.4V47c0,0.2-0.1,0.4-0.4,0.4h-7.5
			c-0.3,0-0.4-0.1-0.4-0.4V34.3z M161.8,47.3h-1.4c-0.1,0-0.2,0-0.3-0.1S160,47,160,46.9v-0.7c-0.2,0.1-0.4,0.3-0.7,0.4
			s-0.5,0.3-0.8,0.4l-0.9,0.3c-0.3,0.1-0.6,0.1-0.9,0.1c-0.7,0-1.2-0.1-1.6-0.3c-0.4-0.2-0.7-0.4-0.9-0.8c-0.2-0.3-0.3-0.7-0.4-1.2
			c-0.1-0.5-0.1-0.9-0.1-1.5v-5.9c0-0.3,0.1-0.4,0.4-0.4h1.5c0.2,0,0.4,0.1,0.4,0.4v5.6c0,0.3,0,0.6,0.1,0.8c0,0.2,0.1,0.4,0.2,0.6
			c0.1,0.2,0.3,0.3,0.4,0.4s0.4,0.1,0.7,0.1c0.2,0,0.4,0,0.7-0.1s0.5-0.2,0.8-0.3s0.5-0.2,0.7-0.3s0.4-0.2,0.5-0.3v-6.7
			c0-0.1,0-0.2,0.1-0.3s0.2-0.1,0.3-0.1h1.4c0.3,0,0.4,0.1,0.4,0.4v9.1C162.2,47.1,162.1,47.3,161.8,47.3L161.8,47.3z M166.9,46.9
			c0,0.3-0.1,0.4-0.4,0.4H165c-0.3,0-0.4-0.1-0.4-0.4v-9.1c0-0.3,0.1-0.4,0.4-0.4h1.4c0.3,0,0.4,0.1,0.4,0.4v0.9
			c0.1-0.1,0.3-0.3,0.6-0.4c0.2-0.2,0.5-0.3,0.8-0.4s0.6-0.2,0.8-0.4c0.3-0.1,0.5-0.2,0.8-0.2h0.3c0.1,0,0.1,0.1,0.2,0.3l0.1,1.3
			v0.3c0,0.1-0.1,0.1-0.4,0.2c-0.3,0.1-0.6,0.1-0.9,0.2s-0.6,0.2-0.9,0.2c-0.3,0.1-0.6,0.2-0.8,0.3c-0.3,0.1-0.5,0.2-0.6,0.2
			L166.9,46.9L166.9,46.9z M180.2,42.2c0,0.6,0,1.2-0.1,1.8s-0.3,1.2-0.6,1.7s-0.7,0.9-1.3,1.3c-0.6,0.3-1.4,0.5-2.4,0.5
			s-1.8-0.2-2.4-0.5c-0.6-0.3-1-0.7-1.3-1.3c-0.3-0.5-0.5-1.1-0.5-1.7c-0.1-0.6-0.1-1.2-0.1-1.8c0-0.5,0-1,0.1-1.6s0.3-1.1,0.6-1.6
			s0.7-0.9,1.3-1.3c0.6-0.3,1.3-0.5,2.3-0.5s1.8,0.1,2.3,0.4c0.6,0.3,1,0.7,1.3,1.2s0.5,1,0.6,1.6S180.2,41.6,180.2,42.2L180.2,42.2
			z M177.9,42.3c0-0.5,0-1-0.1-1.4s-0.2-0.7-0.3-1c-0.2-0.3-0.4-0.5-0.7-0.6s-0.6-0.2-1.1-0.2c-0.4,0-0.8,0.1-1,0.2
			s-0.5,0.3-0.6,0.6c-0.2,0.3-0.3,0.6-0.3,1c-0.1,0.4-0.1,0.9-0.1,1.4s0,1,0.1,1.4s0.2,0.7,0.3,1s0.4,0.5,0.6,0.6s0.6,0.2,1,0.2
			c0.5,0,0.8-0.1,1.1-0.2c0.3-0.1,0.5-0.3,0.7-0.6s0.3-0.6,0.3-1C177.9,43.3,177.9,42.9,177.9,42.3z M190.8,42.3
			c0,0.8-0.1,1.5-0.2,2.2c-0.1,0.6-0.3,1.2-0.6,1.6c-0.3,0.4-0.7,0.8-1.2,1s-1.2,0.3-2,0.3c-0.3,0-0.7,0-1.2-0.1
			c-0.4-0.1-0.9-0.2-1.4-0.3v3.5c0,0.1,0,0.2-0.1,0.3s-0.2,0.1-0.3,0.1h-1.4c-0.2,0-0.3,0-0.3-0.1s-0.1-0.2-0.1-0.3V37.8
			c0-0.3,0.1-0.4,0.4-0.4h1.4c0.1,0,0.2,0,0.3,0.1s0.1,0.2,0.1,0.3v0.6h0.1c0.2-0.1,0.4-0.2,0.6-0.4c0.2-0.1,0.5-0.3,0.8-0.4
			l0.9-0.3c0.3-0.1,0.6-0.1,0.9-0.1c0.7,0,1.2,0.1,1.6,0.4c0.4,0.2,0.8,0.6,1,1s0.4,1,0.5,1.6C190.8,40.8,190.8,41.5,190.8,42.3z
			 M188.5,42.3c0-0.6,0-1.2-0.1-1.5s-0.2-0.7-0.3-0.9s-0.3-0.4-0.5-0.4c-0.2-0.1-0.4-0.1-0.7-0.1c-0.2,0-0.4,0-0.7,0.1
			s-0.5,0.1-0.8,0.2c-0.2,0.1-0.5,0.2-0.7,0.3l-0.6,0.3v5c0.5,0.1,0.9,0.2,1.2,0.3s0.7,0.1,1.1,0.1c0.4,0,0.7-0.1,0.9-0.2
			c0.2-0.1,0.4-0.3,0.6-0.5c0.2-0.3,0.3-0.6,0.3-1C188.5,43.4,188.5,42.9,188.5,42.3z M194.7,42.9c0,0.5,0.1,0.9,0.2,1.3
			c0.1,0.3,0.3,0.6,0.5,0.8s0.4,0.3,0.7,0.4c0.3,0.1,0.6,0.1,1.1,0.1c0.4,0,0.8,0,1.3-0.1s0.9-0.1,1.3-0.1h0.4
			c0.1,0,0.1,0.1,0.2,0.3l0.1,0.7v0.4c0,0.1-0.1,0.2-0.3,0.3s-0.4,0.2-0.7,0.2s-0.5,0.1-0.8,0.2s-0.6,0.1-0.9,0.1H197
			c-1,0-1.7-0.1-2.3-0.4c-0.6-0.3-1-0.7-1.3-1.1c-0.3-0.5-0.5-1-0.6-1.6s-0.2-1.2-0.2-1.9c0-0.5,0-1,0.1-1.6s0.3-1.2,0.6-1.7
			s0.7-1,1.3-1.3c0.6-0.4,1.3-0.5,2.3-0.5c0.9,0,1.6,0.1,2.2,0.4c0.6,0.3,1,0.6,1.3,1s0.5,0.9,0.6,1.4s0.2,1.1,0.2,1.6
			c0,0.4,0,0.7-0.2,0.9s-0.4,0.3-0.8,0.3h-5.5L194.7,42.9z M196.7,39c-0.4,0-0.7,0.1-0.9,0.2c-0.2,0.1-0.4,0.3-0.6,0.5
			c-0.2,0.2-0.3,0.5-0.3,0.8c-0.1,0.3-0.1,0.6-0.1,1h4c0-0.3,0-0.6-0.1-0.9s-0.2-0.5-0.3-0.8s-0.3-0.4-0.6-0.5
			C197.4,39.1,197.1,39,196.7,39L196.7,39z M209,46.1c-0.5,0.4-1.1,0.7-1.7,0.9c-0.6,0.2-1.3,0.4-2,0.4c-0.5,0-1-0.1-1.3-0.2
			c-0.4-0.1-0.6-0.3-0.8-0.6c-0.2-0.2-0.4-0.5-0.4-0.9c-0.1-0.3-0.1-0.7-0.1-1.2c0-1.2,0.3-2,0.9-2.6c0.6-0.5,1.6-0.8,2.8-0.8h2.6
			v-0.5c0-0.3,0-0.5-0.1-0.8c-0.1-0.2-0.2-0.4-0.3-0.5L208,39c-0.3-0.1-0.6-0.1-1-0.1h-1.3c-0.2,0-0.5,0-0.7,0.1
			c-0.2,0-0.5,0-0.7,0.1h-0.4c-0.1,0-0.1-0.1-0.2-0.3l-0.2-0.7v-0.3c0.1-0.1,0.2-0.2,0.4-0.3s0.5-0.1,0.8-0.2
			c0.3-0.1,0.6-0.1,0.9-0.1s0.6-0.1,0.9-0.1h0.8c0.9,0,1.6,0.1,2.1,0.3s0.9,0.4,1.2,0.7s0.4,0.7,0.5,1.2s0.1,1,0.1,1.5v4.4
			c0,0.1,0.1,0.2,0.1,0.3s0.1,0.1,0.2,0.1s0.2,0,0.4,0.1c0.1,0,0.2,0,0.3,0.1c0.1,0,0.1,0.1,0.1,0.2v0.8c0,0.2-0.2,0.4-0.5,0.4
			c-0.2,0-0.3,0-0.5,0.1h-0.5c-0.5,0-0.8-0.1-1.1-0.3C209.3,46.9,209.1,46.6,209,46.1z M208.9,42.8h-2.4c-0.5,0-0.9,0.1-1.2,0.4
			c-0.3,0.2-0.4,0.7-0.4,1.3c0,0.4,0.1,0.7,0.3,0.9s0.5,0.3,1,0.3c0.2,0,0.4,0,0.7-0.1s0.5-0.1,0.8-0.2c0.3-0.1,0.5-0.2,0.7-0.3
			s0.5-0.2,0.6-0.3v-2L208.9,42.8z M222.1,47.2c-0.1,0.1-0.2,0.1-0.3,0.1h-1.5c-0.3,0-0.4-0.1-0.4-0.4v-5.6c0-0.6-0.1-1.1-0.3-1.4
			c-0.2-0.4-0.6-0.5-1.2-0.5c-0.2,0-0.4,0-0.7,0.1s-0.5,0.2-0.8,0.3s-0.5,0.2-0.7,0.3s-0.4,0.2-0.5,0.3v6.7c0,0.3-0.1,0.4-0.4,0.4
			h-1.4c-0.3,0-0.4-0.1-0.4-0.4V38c0-0.3,0.1-0.4,0.4-0.4h1.4c0.3,0,0.4,0.1,0.4,0.4v0.6c0.2-0.1,0.4-0.3,0.7-0.4s0.5-0.3,0.8-0.4
			l0.9-0.3c0.3-0.1,0.6-0.1,0.9-0.1c0.7,0,1.2,0.1,1.6,0.3c0.4,0.2,0.7,0.5,0.9,0.8s0.3,0.8,0.4,1.2c0.1,0.5,0.1,0.9,0.1,1.5V47
			C222.1,47,222.1,47.1,222.1,47.2z"/>
	</g>
	<g class="st3">
		<path class="st4" d="M143.2,61c0-0.9,0.1-1.7,0.2-2.5s0.4-1.6,0.8-2.2c0.4-0.6,0.9-1.2,1.6-1.6s1.6-0.6,2.8-0.6h0.8
			c0.3,0,0.6,0.1,1,0.1c0.3,0,0.7,0.1,1,0.2l0.9,0.3c0.2,0.1,0.3,0.1,0.3,0.2s0.1,0.2,0.1,0.4l-0.2,0.8c0,0.1-0.1,0.2-0.1,0.3
			c-0.1,0.1-0.2,0.1-0.4,0c-0.5-0.1-1-0.1-1.6-0.2c-0.6-0.1-1.1-0.1-1.6-0.1c-0.7,0-1.2,0.1-1.6,0.4c-0.4,0.3-0.7,0.6-1,1
			c-0.2,0.4-0.4,1-0.4,1.5s-0.1,1.2-0.1,1.9s0,1.3,0.1,1.8c0.1,0.6,0.2,1.1,0.5,1.5c0.2,0.4,0.5,0.8,1,1c0.4,0.2,0.9,0.4,1.6,0.4
			c0.6,0,1.1,0,1.6-0.1s1-0.1,1.6-0.2h0.4c0.1,0.1,0.1,0.1,0.2,0.3l0.2,0.8c0.1,0.3,0,0.5-0.3,0.6c-0.2,0.1-0.5,0.2-0.9,0.3
			c-0.3,0.1-0.7,0.1-1,0.2s-0.7,0.1-1,0.1h-0.9c-1.1,0-2-0.2-2.7-0.6s-1.3-0.9-1.6-1.5c-0.4-0.6-0.7-1.3-0.8-2.1
			C143.3,62.7,143.2,61.9,143.2,61L143.2,61z M162.9,62.5c0,0.6,0,1.2-0.1,1.8c-0.1,0.6-0.3,1.2-0.6,1.7s-0.7,0.9-1.3,1.3
			c-0.6,0.3-1.4,0.5-2.4,0.5s-1.8-0.2-2.4-0.5s-1-0.7-1.3-1.3c-0.3-0.5-0.5-1.1-0.5-1.7c-0.1-0.6-0.1-1.2-0.1-1.8c0-0.5,0-1,0.1-1.6
			s0.3-1.1,0.6-1.6s0.7-0.9,1.3-1.3c0.6-0.3,1.3-0.5,2.3-0.5s1.8,0.1,2.3,0.4c0.6,0.3,1,0.7,1.3,1.2s0.5,1,0.6,1.6
			S162.9,61.9,162.9,62.5L162.9,62.5z M160.6,62.6c0-0.5,0-1-0.1-1.4s-0.2-0.7-0.3-1c-0.2-0.3-0.4-0.5-0.7-0.6s-0.6-0.2-1.1-0.2
			c-0.4,0-0.8,0.1-1,0.2s-0.5,0.3-0.6,0.6c-0.2,0.3-0.3,0.6-0.3,1c-0.1,0.4-0.1,0.9-0.1,1.4s0,1,0.1,1.4s0.2,0.7,0.3,1
			c0.1,0.3,0.4,0.5,0.6,0.6s0.6,0.2,1,0.2c0.5,0,0.8-0.1,1.1-0.2s0.5-0.3,0.7-0.6s0.3-0.6,0.3-1C160.5,63.6,160.6,63.2,160.6,62.6z
			 M179.2,67.5c0,0.1-0.1,0.1-0.3,0.1h-1.4c-0.3,0-0.4-0.1-0.4-0.4v-5.7c0-0.7-0.1-1.3-0.3-1.5c-0.2-0.3-0.6-0.4-1.1-0.4
			c-0.2,0-0.4,0-0.6,0.1c-0.2,0.1-0.5,0.1-0.7,0.2c-0.2,0.1-0.5,0.2-0.7,0.3l-0.6,0.3v6.7c0,0.1,0,0.2-0.1,0.3
			c-0.1,0.1-0.2,0.1-0.3,0.1h-1.5c-0.2,0-0.3-0.1-0.3-0.4v-5.8c0-0.6-0.1-1.1-0.3-1.4c-0.2-0.3-0.5-0.4-1-0.4c-0.2,0-0.4,0-0.6,0.1
			s-0.4,0.1-0.7,0.2c-0.2,0.1-0.5,0.2-0.7,0.3l-0.6,0.3v6.7c0,0.3-0.1,0.4-0.4,0.4h-1.4c-0.2,0-0.4-0.1-0.4-0.4v-9.1
			c0-0.3,0.1-0.4,0.4-0.4h1.4c0.3,0,0.4,0.1,0.4,0.4v0.6c0.2-0.1,0.4-0.3,0.6-0.4s0.5-0.3,0.7-0.4s0.5-0.2,0.8-0.3s0.5-0.1,0.8-0.1
			c0.6,0,1.1,0.1,1.6,0.3s0.9,0.6,1.2,1.1c0.5-0.4,1.1-0.7,1.7-1c0.6-0.3,1.2-0.4,1.9-0.4s1.2,0.1,1.6,0.3c0.4,0.2,0.7,0.5,0.9,0.8
			s0.3,0.7,0.4,1.2c0.1,0.5,0.1,0.9,0.1,1.4v6C179.2,67.3,179.2,67.4,179.2,67.5L179.2,67.5z M195.7,67.5c0,0.1-0.1,0.1-0.3,0.1H194
			c-0.3,0-0.4-0.1-0.4-0.4v-5.7c0-0.7-0.1-1.3-0.3-1.5c-0.2-0.3-0.6-0.4-1.1-0.4c-0.2,0-0.4,0-0.6,0.1c-0.2,0.1-0.5,0.1-0.7,0.2
			c-0.2,0.1-0.5,0.2-0.7,0.3l-0.6,0.3v6.7c0,0.1,0,0.2-0.1,0.3c-0.1,0.1-0.2,0.1-0.3,0.1h-1.5c-0.2,0-0.3-0.1-0.3-0.4v-5.8
			c0-0.6-0.1-1.1-0.3-1.4c-0.2-0.3-0.5-0.4-1-0.4c-0.2,0-0.4,0-0.6,0.1s-0.4,0.1-0.7,0.2s-0.5,0.2-0.7,0.3l-0.6,0.3v6.7
			c0,0.3-0.1,0.4-0.4,0.4h-1.4c-0.2,0-0.4-0.1-0.4-0.4v-9.1c0-0.3,0.1-0.4,0.4-0.4h1.4c0.3,0,0.4,0.1,0.4,0.4v0.6
			c0.2-0.1,0.4-0.3,0.6-0.4s0.5-0.3,0.7-0.4c0.3-0.1,0.5-0.2,0.8-0.3s0.5-0.1,0.8-0.1c0.6,0,1.1,0.1,1.6,0.3s0.9,0.6,1.2,1.1
			c0.5-0.4,1.1-0.7,1.7-1c0.6-0.3,1.2-0.4,1.9-0.4s1.2,0.1,1.6,0.3c0.4,0.2,0.7,0.5,0.9,0.8s0.3,0.7,0.4,1.2
			c0.1,0.5,0.1,0.9,0.1,1.4v6C195.8,67.3,195.7,67.4,195.7,67.5L195.7,67.5z M200.5,55.1v0.5c0,0.1-0.1,0.3-0.2,0.4
			c-0.1,0.1-0.2,0.2-0.4,0.3s-0.4,0.1-0.6,0.1c-0.3,0-0.5,0-0.6-0.1c-0.2-0.1-0.3-0.2-0.4-0.3c-0.1-0.1-0.1-0.2-0.2-0.4v-0.4
			c0-0.3,0.1-0.6,0.2-0.8c0.2-0.2,0.5-0.3,1-0.3s0.8,0.1,1,0.3C200.4,54.5,200.5,54.8,200.5,55.1z M200.4,67.2c0,0.1,0,0.2-0.1,0.3
			c0,0.1-0.1,0.1-0.3,0.1h-1.4c-0.3,0-0.4-0.1-0.4-0.4v-9.1c0-0.3,0.1-0.4,0.4-0.4h1.4c0.1,0,0.2,0,0.3,0.1c0,0.1,0.1,0.2,0.1,0.3
			C200.4,58.1,200.4,67.2,200.4,67.2z M210.2,64.6c0,0.6-0.1,1.1-0.3,1.5s-0.5,0.7-0.9,1c-0.4,0.2-0.8,0.4-1.3,0.5s-1,0.2-1.5,0.2
			s-1.1,0-1.6-0.1c-0.6-0.1-1.1-0.2-1.5-0.3c-0.2-0.1-0.3-0.2-0.4-0.3c-0.1-0.1-0.1-0.2,0-0.4l0.1-0.7c0-0.2,0.1-0.3,0.2-0.3h0.4
			c0.2,0,0.5,0.1,0.7,0.1c0.3,0,0.5,0,0.8,0.1c0.3,0,0.5,0,0.7,0.1h0.6c0.6,0,1.1-0.1,1.4-0.3c0.3-0.2,0.4-0.5,0.4-0.9
			c0-0.2,0-0.4-0.1-0.6c-0.1-0.2-0.1-0.3-0.3-0.4s-0.3-0.2-0.5-0.2c-0.2-0.1-0.5-0.1-0.8-0.2c-0.5-0.1-1-0.2-1.4-0.3
			s-0.8-0.3-1.2-0.5c-0.3-0.2-0.6-0.5-0.8-0.8s-0.3-0.8-0.3-1.3c0-1,0.3-1.7,1-2.3c0.7-0.5,1.6-0.8,2.7-0.8h0.7c0.3,0,0.5,0,0.8,0.1
			c0.3,0,0.5,0.1,0.8,0.1s0.5,0.1,0.7,0.2c0.3,0.1,0.5,0.3,0.4,0.6l-0.2,0.7c0,0.1-0.1,0.2-0.2,0.3h-0.4c-0.4-0.1-0.9-0.1-1.4-0.2
			c-0.5,0-0.9-0.1-1.3-0.1c-0.6,0-1.1,0.1-1.3,0.3s-0.3,0.5-0.3,0.9s0.1,0.6,0.4,0.8c0.3,0.1,0.7,0.2,1.3,0.3
			c0.5,0.1,0.9,0.2,1.4,0.3s0.8,0.3,1.2,0.5c0.3,0.2,0.6,0.5,0.8,0.9C210.1,63.5,210.2,64,210.2,64.6L210.2,64.6z M219.4,64.6
			c0,0.6-0.1,1.1-0.3,1.5s-0.5,0.7-0.9,1c-0.4,0.2-0.8,0.4-1.3,0.5s-1,0.2-1.5,0.2s-1.1,0-1.6-0.1c-0.6-0.1-1.1-0.2-1.5-0.3
			c-0.2-0.1-0.3-0.2-0.4-0.3c-0.1-0.1-0.1-0.2,0-0.4L212,66c0-0.2,0.1-0.3,0.2-0.3h0.4c0.2,0,0.5,0.1,0.7,0.1c0.3,0,0.5,0,0.8,0.1
			c0.3,0,0.5,0,0.7,0.1h0.6c0.6,0,1.1-0.1,1.4-0.3c0.3-0.2,0.4-0.5,0.4-0.9c0-0.2,0-0.4-0.1-0.6c-0.1-0.2-0.1-0.3-0.3-0.4
			s-0.3-0.2-0.5-0.2c-0.2-0.1-0.5-0.1-0.8-0.2c-0.5-0.1-1-0.2-1.4-0.3s-0.8-0.3-1.2-0.5c-0.3-0.2-0.6-0.5-0.8-0.8s-0.3-0.8-0.3-1.3
			c0-1,0.3-1.7,1-2.3c0.7-0.5,1.6-0.8,2.7-0.8h0.7c0.3,0,0.5,0,0.8,0.1c0.3,0,0.5,0.1,0.8,0.1s0.5,0.1,0.7,0.2
			c0.3,0.1,0.5,0.3,0.4,0.6l-0.2,0.7c0,0.1-0.1,0.2-0.2,0.3h-0.4c-0.4-0.1-0.9-0.1-1.4-0.2c-0.5,0-0.9-0.1-1.3-0.1
			c-0.6,0-1.1,0.1-1.3,0.3s-0.3,0.5-0.3,0.9s0.1,0.6,0.4,0.8c0.3,0.1,0.7,0.2,1.3,0.3c0.5,0.1,0.9,0.2,1.4,0.3s0.8,0.3,1.2,0.5
			c0.3,0.2,0.6,0.5,0.8,0.9C219.3,63.5,219.4,64,219.4,64.6L219.4,64.6z M223.9,55.1v0.5c0,0.1-0.1,0.3-0.2,0.4
			c-0.1,0.1-0.2,0.2-0.4,0.3s-0.4,0.1-0.6,0.1c-0.3,0-0.5,0-0.6-0.1c-0.2-0.1-0.3-0.2-0.4-0.3c-0.1-0.1-0.1-0.2-0.2-0.4v-0.4
			c0-0.3,0.1-0.6,0.2-0.8c0.2-0.2,0.5-0.3,1-0.3s0.8,0.1,1,0.3C223.8,54.5,223.9,54.8,223.9,55.1z M223.8,67.2c0,0.1,0,0.2-0.1,0.3
			c0,0.1-0.1,0.1-0.3,0.1H222c-0.3,0-0.4-0.1-0.4-0.4v-9.1c0-0.3,0.1-0.4,0.4-0.4h1.4c0.1,0,0.2,0,0.3,0.1c0,0.1,0.1,0.2,0.1,0.3
			L223.8,67.2L223.8,67.2z M234.8,62.5c0,0.6,0,1.2-0.1,1.8c-0.1,0.6-0.3,1.2-0.6,1.7s-0.7,0.9-1.3,1.3c-0.6,0.3-1.4,0.5-2.4,0.5
			s-1.8-0.2-2.4-0.5s-1-0.7-1.3-1.3c-0.3-0.5-0.5-1.1-0.5-1.7c-0.1-0.6-0.1-1.2-0.1-1.8c0-0.5,0-1,0.1-1.6s0.3-1.1,0.6-1.6
			s0.7-0.9,1.3-1.3c0.6-0.3,1.3-0.5,2.3-0.5s1.8,0.1,2.3,0.4c0.6,0.3,1,0.7,1.3,1.2s0.5,1,0.6,1.6S234.8,61.9,234.8,62.5L234.8,62.5
			z M232.5,62.6c0-0.5,0-1-0.1-1.4s-0.2-0.7-0.3-1c-0.2-0.3-0.4-0.5-0.7-0.6s-0.6-0.2-1.1-0.2c-0.4,0-0.8,0.1-1,0.2
			s-0.5,0.3-0.6,0.6c-0.2,0.3-0.3,0.6-0.3,1c-0.1,0.4-0.1,0.9-0.1,1.4s0,1,0.1,1.4s0.2,0.7,0.3,1c0.1,0.3,0.4,0.5,0.6,0.6
			s0.6,0.2,1,0.2c0.5,0,0.8-0.1,1.1-0.2s0.5-0.3,0.7-0.6s0.3-0.6,0.3-1C232.4,63.6,232.5,63.2,232.5,62.6z M245.2,67.5
			c-0.1,0.1-0.2,0.1-0.3,0.1h-1.5c-0.3,0-0.4-0.1-0.4-0.4v-5.6c0-0.6-0.1-1.1-0.3-1.4c-0.2-0.4-0.6-0.5-1.2-0.5
			c-0.2,0-0.4,0-0.7,0.1s-0.5,0.2-0.8,0.3s-0.5,0.2-0.7,0.3s-0.4,0.2-0.5,0.3v6.5c0,0.3-0.1,0.4-0.4,0.4H237c-0.3,0-0.4-0.1-0.4-0.4
			v-9.1c0-0.3,0.1-0.4,0.4-0.4h1.4c0.3,0,0.4,0.1,0.4,0.4v0.6c0.2-0.1,0.4-0.3,0.7-0.4s0.5-0.3,0.8-0.4l0.9-0.3
			c0.3-0.1,0.6-0.1,0.9-0.1c0.7,0,1.2,0.1,1.6,0.3c0.4,0.2,0.7,0.5,0.9,0.8s0.3,0.8,0.4,1.2c0.1,0.5,0.1,0.9,0.1,1.5v5.9
			C245.3,67.3,245.2,67.4,245.2,67.5L245.2,67.5z"/>
	</g>
</g>
</svg>
